<?xml version="1.0" encoding="UTF-8"?><svg id="Camada_2" xmlns="http://www.w3.org/2000/svg" viewBox="0 0 433.83 104.09"><defs><style>.cls-1{font-family:Acto-Bold, Acto;font-size:16.44px;}.cls-1,.cls-2{fill:#1d1d1b;}.cls-2,.cls-3{font-family:Acto-ExtraBold, Acto;font-size:92px;}.cls-3{fill:#27348b;}</style></defs><g id="Function"><text class="cls-1" transform="translate(96.99 100.56)"><tspan x="0" y="0">D</tspan></text><text class="cls-1" transform="translate(147.7 100.56)"><tspan x="0" y="0">V</tspan></text><text class="cls-1" transform="translate(173.01 100.56)"><tspan x="0" y="0">E</tspan></text><text class="cls-1" transform="translate(198.01 100.56)"><tspan x="0" y="0">L</tspan></text><text class="cls-1" transform="translate(222.01 100.56)"><tspan x="0" y="0">O</tspan></text><text class="cls-1" transform="translate(248.01 100.56)"><tspan x="0" y="0">P</tspan></text><text class="cls-1" transform="translate(273.01 100.56)"><tspan x="0" y="0">E</tspan></text><text class="cls-1" transform="translate(298.01 100.56)"><tspan x="0" y="0">R</tspan></text><text class="cls-1" transform="translate(324.01 100.56)"><tspan x="0" y="0">S</tspan></text><text class="cls-1" transform="translate(121.84 100.56)"><tspan x="0" y="0">E</tspan></text></g><g id="Name"><text class="cls-2" transform="translate(91.75 77.28)"><tspan x="0" y="0">E</tspan></text><text class="cls-2" transform="translate(146.75 77.28)"><tspan x="0" y="0">S</tspan></text><text class="cls-3" transform="translate(201.75 78.28)"><tspan x="0" y="0">T</tspan></text><text class="cls-3" transform="translate(257.75 78.28)"><tspan x="0" y="0">E</tspan></text><text class="cls-3" transform="translate(313.75 78.28)"><tspan x="0" y="0">C</tspan></text><text class="cls-2" transform="translate(0 77.28)"><tspan x="0" y="0">W</tspan></text><text class="cls-3" transform="translate(372.75 78.28)"><tspan x="0" y="0">H</tspan></text></g></svg>